<svg xmlns="http://www.w3.org/2000/svg" viewBox="0 0 120 120" fill="none">
  <defs>
    <linearGradient id="g" x1="0" y1="0" x2="120" y2="120" gradientUnits="userSpaceOnUse">
      <stop offset="0%" stop-color="#18100f"/>
      <stop offset="100%" stop-color="#0d0908"/>
    </linearGradient>
  </defs>
  <rect width="120" height="120" rx="16" fill="url(#g)"/>
  <g transform="translate(28,18)">
    <path d="M32 0 Q52 0 56 20 L56 50 Q56 64 44 72 L20 72 Q8 64 8 50 L8 20 Q12 0 32 0Z" stroke="#c41e2a" stroke-width="2.5" fill="none"/>
    <path d="M18 28 Q24 24 30 28 Q36 32 42 28" stroke="#c41e2a" stroke-width="2" fill="none" stroke-linecap="round"/>
    <path d="M14 40 L22 36 L30 42 L38 34 L46 40" stroke="#c41e2a" stroke-width="2" fill="none" stroke-linecap="round"/>
    <line x1="20" y1="52" x2="44" y2="52" stroke="#c41e2a" stroke-width="1.5" opacity="0.6"/>
    <circle cx="32" cy="16" r="2" fill="#c41e2a" opacity="0.5"/>
  </g>
</svg>